<svg xmlns="http://www.w3.org/2000/svg" viewBox="0 0 24 24" preserveAspectRatio="xMidYMid meet">
    <g>
        <path d="M24,12A12,12,0,1,1,12,0,12,12,0,0,1,24,12Z" fill="#50b43c"></path>
        <circle cx="7.31" cy="12.07" r="3.69" fill="#fff"></circle>
        <path d="M16.69,15.76a3.69,3.69,0,1,1,3.69-3.69A3.7,3.7,0,0,1,16.69,15.76Zm0-6.67a3,3,0,1,0,3,3A3,3,0,0,0,16.69,9.09ZM7.63,7.37A0.21,0.21,0,0,1,7.47,7a5.67,5.67,0,0,1,4.07-1.55A5.82,5.82,0,0,1,15.46,6.8a0.21,0.21,0,1,1-.3.3,5.52,5.52,0,0,0-3.62-1.21H11.46A5.29,5.29,0,0,0,7.78,7.31,0.21,0.21,0,0,1,7.63,7.37Z" fill="#fff"></path>
        <path d="M14,7.41A0.21,0.21,0,1,1,14,7l1.33,0L15.16,5.75a0.21,0.21,0,0,1,.19-0.23h0a0.21,0.21,0,0,1,.23.19l0.17,1.68L14,7.41h0ZM12.26,18.53H12.19A5.83,5.83,0,0,1,8.27,17.2a0.21,0.21,0,0,1,.3-0.3,5.52,5.52,0,0,0,3.62,1.21,6.43,6.43,0,0,0,4-1.43,0.21,0.21,0,0,1,.28.32A6.81,6.81,0,0,1,12.26,18.53Z" fill="#fff"></path>
        <path d="M8.36,18.49a0.21,0.21,0,0,1-.21-0.19L8,16.62l1.79,0a0.21,0.21,0,0,1,0,.43h0L8.45,17l0.13,1.22a0.21,0.21,0,0,1-.19.23h0Z" fill="#fff"></path>
    </g>
</svg>