<svg xmlns="http://www.w3.org/2000/svg" viewBox="0 0 24 24" preserveAspectRatio="xMidYMid meet">
    <g>
        <circle fill="#FFB517" cx="12" cy="12" r="12"></circle>
        <path fill="#AD5F99" d="M14.9,15.1l1,4.8l-1.3-0.3l-1,0.9l-1-4.7c0.2,0.1,0.4,0.3,0.6,0.2c0.4-0.1,0.6-0.8,1-1
	        C14.4,15,14.7,15,14.9,15.1L14.9,15.1z M11.4,15.8l-1,4.7l-1-0.9l-1.3,0.3l1-4.8c0.3-0.1,0.5-0.1,0.7,0c0.4,0.1,0.5,0.9,1,1
	        C11,16.1,11.2,15.9,11.4,15.8z"></path>
        <path fill="#A6428D" d="M14.6,19.6L14.6,19.6l1.3,0.3l-1-4.8c-0.3-0.1-0.5-0.1-0.7,0c-0.2,0.1-0.3,0.3-0.5,0.5l0,0L14.6,19.6z"></path>
        <path fill="#A6428D" d="M9.4,19.6l1,0.9l1-4.7c-0.2,0.1-0.4,0.3-0.6,0.2c-0.2,0-0.4-0.3-0.5-0.5L9.4,19.6z"></path>
        <path fill="#2FA6C4" d="M12,15.5V4c0,0,0,0,0.1,0c0,0-0.1,0-0.1,0c-0.4,0-0.8-0.6-1.2-0.5c-0.4,0.1-0.6,0.8-1,1
            c-0.4,0.2-1-0.2-1.4,0c-0.4,0.2-0.2,1-0.5,1.3C7.7,6,6.9,5.8,6.7,6.2c-0.2,0.4,0.2,1,0,1.4c-0.1,0.4-0.9,0.5-1,1
            C5.6,8.9,6.3,9.3,6.2,9.7c0,0.4-0.6,0.8-0.5,1.2c0.1,0.4,0.8,0.6,1,1c0.2,0.4-0.2,1,0,1.4c0.2,0.4,1,0.2,1.3,0.5
            c0.3,0.3,0.2,1,0.5,1.3c0.4,0.2,1-0.2,1.4,0c0.4,0.1,0.5,0.9,1,1C11.2,16.1,11.6,15.5,12,15.5C12,15.5,12.1,15.5,12,15.5
            C12.1,15.5,12,15.5,12,15.5z"></path>
        <path fill="#1586AD" d="M12,4c0.4,0,0.8-0.6,1.2-0.5c0.4,0.1,0.6,0.8,1,1c0.4,0.2,1-0.2,1.4,0c0.4,0.2,0.2,1,0.5,1.3
            c0.3,0.3,1,0.2,1.3,0.5c0.2,0.4-0.2,1,0,1.4c0.1,0.4,0.9,0.5,1,1c0.1,0.4-0.6,0.8-0.5,1.2c0,0.4,0.6,0.8,0.5,1.2
            c-0.1,0.4-0.8,0.6-1,1c-0.2,0.4,0.2,1,0,1.4c-0.2,0.4-1,0.2-1.3,0.5c-0.3,0.3-0.2,1-0.5,1.3c-0.4,0.2-1-0.2-1.4,0
            c-0.4,0.1-0.5,0.9-1,1c-0.4,0.1-0.8-0.5-1.2-0.5V4z"></path>
        <path fill="#FFFFFF" d="M12.2,7.2l0.6,1.4l1.5,0.2c0.1,0,0.2,0.1,0.2,0.2c0,0.1,0,0.2-0.1,0.3l-1.1,1l0.3,1.5c0,0.1,0,0.2-0.1,0.3
            c-0.1,0.1-0.2,0.1-0.3,0L12,11.2l-1.3,0.7c-0.1,0.1-0.2,0-0.3,0c-0.1-0.1-0.1-0.2-0.1-0.3l0.3-1.5l-1.1-1C9.4,9.1,9.4,9,9.4,8.9
            c0-0.1,0.1-0.2,0.2-0.2l1.5-0.2l0.6-1.4C11.8,7.1,11.9,7,12,7S12.2,7.1,12.2,7.2z"></path>
        <path fill="#FFFFFF" d="M12,6.1c2,0,3.6,1.6,3.6,3.6c0,2-1.6,3.6-3.6,3.6c-2,0-3.6-1.6-3.6-3.6C8.4,7.7,10,6.1,12,6.1L12,6.1z
	        M13.7,5.6c-2.9-1.2-6.1,0.9-6.1,4.1c0,3.2,3.2,5.4,6.1,4.1c2.9-1.2,3.7-5,1.4-7.3C14.7,6.2,14.2,5.8,13.7,5.6z"></path>
    </g>
</svg>