<svg xmlns="http://www.w3.org/2000/svg" viewBox="0 0 24 24" preserveAspectRatio="xMidYMid meet">
    <g>
        <circle cx="12.02" cy="12.02" r="12.02" fill="#ff7069"></circle>
        <path d="M12.24,17.07l2.45-1.48c0.57-.34.87,0.31,0.53,0.5L13.3,17.16Z" fill="#fec982"></path>
        <path d="M13.31,16.94l2.63-1.62c0.62-.38.94,0.39,0.61,0.59L14.74,17l-1.43,0h0Z" fill="#ffd190"></path>
        <path d="M7,17.5L2,18.64A12.08,12.08,0,0,1,.33,14.85l6.22-.41a4.59,4.59,0,0,1,2.33.09c0.72,0.4.65,1.28,2.3,1.75l2.36,0.41,3.79-.93c0.7-.12.84,0.66,0.38,0.84L12.62,18.4C11.93,18.64,10.28,18.08,7,17.5Z" fill="#ffd190"></path>
        <path d="M14.3,16.5c0.26,0.27-.26.43-1,0.58-0.53.11-1.23,0.25-1.58,0.33a13.35,13.35,0,0,1-3.56-.82c0.61,0,3.17.75,3.57,0.67s2.34-.59,2.47-0.66S14.28,16.54,14.3,16.5Z" fill="#f0b97d"></path>
        <path d="M4.36,14.12L5,19.06l-2.43.43a11.93,11.93,0,0,1-2.35-5Z" fill="#6b7f9e"></path>
        <path d="M5.26,14.15l0.65,4.63L5,18.9,4.36,14.26Z" fill="#fff"></path>
        <path d="M4.59,18.39a0.33,0.33,0,1,1-.37-0.29A0.33,0.33,0,0,1,4.59,18.39Z" fill="#8597b1"></path>
        <path d="M8.26,14.36a2.71,2.71,0,0,1,2.69,1.41L12.07,16A4.27,4.27,0,0,1,13.7,16c0.56,0.17.74,0.63,0.52,0.75s-2.06.45-2.47,0.53a16.8,16.8,0,0,1-3.57-.67,1.15,1.15,0,0,1,.08-2.23h0Z" fill="#ffd190"></path>
        <path d="M17.33,16.73l0.6-.2c0.07,0,0-.21-0.08-0.21s-0.64.13-.64,0.13A0.37,0.37,0,0,1,17.33,16.73Z" fill="#fff1df"></path>
        <path d="M13.4,16.88l0.76-.17A0.31,0.31,0,0,0,14,16.34a2.91,2.91,0,0,0-.78.07,1.43,1.43,0,0,1,.15.46h0Z" fill="#fff"></path>
        <path d="M12.36,9.44L14,9.31a3.47,3.47,0,0,0,.86-0.41l-0.6-1-1.55-.19-1.2,1.1-0.46.94c-0.27.49-1.18,0.4-1-.23l0.52-1.58a10.73,10.73,0,0,1,1.79-1.6A33.35,33.35,0,0,1,16.31,6s2.78,1.51,3.81,2.17l3.28,0A12,12,0,0,1,24,10.92l-4.13-.1a18,18,0,0,1-3.52.38,17.13,17.13,0,0,1-2.14-.52,8.1,8.1,0,0,1-2-.17,0.54,0.54,0,0,1,.16-1.07h0Z" fill="#ffd190"></path>
        <path d="M10.14,9.33L10.32,9.4l-0.15.46S10,9.95,10,9.75a2.12,2.12,0,0,1,.12-0.43h0Z" fill="#fff"></path>
        <path d="M12.87,9.42c0-.07,0-0.15-0.06-0.22a2.34,2.34,0,0,0-.52-0.88,2.3,2.3,0,1,0,.22,2.87,2.22,2.22,0,0,0,.34-0.75c0-.07,0-0.13,0-0.2a2.36,2.36,0,0,0,0-.35,2.32,2.32,0,0,0-.05-0.49h0Z" fill="#ffe356"></path>
        <path d="M12.76,9.44c0-.07,0-0.14-0.06-0.21a2.15,2.15,0,0,0-.49-0.83,2.19,2.19,0,1,0,.21,2.74,2.13,2.13,0,0,0,.32-0.72c0-.06,0-0.13,0-0.2a2.14,2.14,0,0,0,0-.33,2.12,2.12,0,0,0-.05-0.47h0Z" fill="#fcd34e"></path>
        <path d="M10.62,8.2a1.71,1.71,0,1,0,1.71,1.71A1.71,1.71,0,0,0,10.62,8.2Zm0,0.21a1.5,1.5,0,1,1-1.5,1.5A1.5,1.5,0,0,1,10.62,8.41Z" fill="#ffe356"></path>
        <path d="M10.49,11V10.72A1,1,0,0,1,10,10.6l0.08-.3a0.87,0.87,0,0,0,.43.11,0.2,0.2,0,0,0,.25-0.16A0.3,0.3,0,0,0,10.53,10a0.52,0.52,0,0,1-.46-0.47,0.47,0.47,0,0,1,.43-0.45V8.87h0.25V9.09a0.9,0.9,0,0,1,.37.08l-0.07.29a0.85,0.85,0,0,0-.37-0.09c-0.17,0-.22.07-0.22,0.15s0.09,0.14.31,0.22a0.48,0.48,0,0,1,0,1V11H10.49Z" fill="#ffe356"></path>
        <path d="M12.36,9.44L14,9.31a3.47,3.47,0,0,0,.86-0.41s1.63,0.67,1.53,1.35a1.08,1.08,0,0,1-.44.89c-0.83-.16-1.76-0.45-1.76-0.45a8.1,8.1,0,0,1-2-.17,0.54,0.54,0,0,1,.16-1.07h0Z" fill="#ffd190"></path>
        <path d="M20.28,7.51l0.27,4.35,1.15-.07L21.43,7.44Z" fill="#fff"></path>
        <path d="M21.23,7l0.34,5.27,2.48,0V12a12,12,0,0,0-1.17-5.17L21.23,7h0Z" fill="#6b7f9e"></path>
        <path d="M11.88,10.07l0.8,0v0.48a2.39,2.39,0,0,1-.82-0.08,0.25,0.25,0,0,1,0-.38h0Z" fill="#fff"></path>
        <path d="M22.69,11.54a0.33,0.33,0,1,1-.37-0.29A0.33,0.33,0,0,1,22.69,11.54Z" fill="#8597b1"></path>
    </g>
</svg>