<svg xmlns="http://www.w3.org/2000/svg" viewBox="0 0 24 24" preserveAspectRatio="xMidYMid meet">
    <g>
        <path d="M12,0A12,12,0,1,1,0,12,12,12,0,0,1,12,0Z" fill="#efc75e"></path>
        <path d="M5.65,7.83c2.27-2.31,4.52-1.3,6.33.35,1.8-1.65,4-2.67,6.33-.35a4.64,4.64,0,0,1,0,6.53l-5.4,4.94a1.34,1.34,0,0,1-1.81,0L5.65,14.36A4.64,4.64,0,0,1,5.65,7.83Z" fill="#e2574c"></path>
        <path d="M3.75,17.65A1.23,1.23,0,0,0,5,16.46a1.23,1.23,0,0,0,1.2,1.2A1.23,1.23,0,0,0,5,18.85,1.23,1.23,0,0,0,3.75,17.65Zm14-.64a1.23,1.23,0,0,1-1.2,1.2,1.23,1.23,0,0,1,1.2,1.2,1.23,1.23,0,0,1,1.2-1.2A1.23,1.23,0,0,1,17.73,17ZM9.59,2.4a1.23,1.23,0,0,1-1.2,1.2,1.23,1.23,0,0,1,1.2,1.2,1.23,1.23,0,0,1,1.2-1.2A1.23,1.23,0,0,1,9.59,2.4Z" fill="#fff"></path>
        <path d="M16.06,7.91a2.21,2.21,0,0,0,2.16-2.16,2.21,2.21,0,0,0,2.16,2.16,2.21,2.21,0,0,0-2.16,2.16A2.21,2.21,0,0,0,16.06,7.91Z" fill="#fcf4df"></path>
        <path d="M6,10.95a2.8,2.8,0,0,1,2.8-2.8,0.31,0.31,0,1,1,0,.63,2.17,2.17,0,0,0-2.17,2.17A0.31,0.31,0,0,1,6,10.95Z" fill="#e66e65"></path>
        <path d="M11.61,18.84L6.17,13.9h0l-0.27-.24a4.62,4.62,0,0,1-1.2-4.38,4.63,4.63,0,0,0,1,5.1l5.44,4.94a1.34,1.34,0,0,0,1.81,0l0.43-.39A1.34,1.34,0,0,1,11.61,18.84Z" fill="#cb4e44"></path>
        <path d="M18.88,8.54a4.68,4.68,0,0,0-.57-0.71,5.77,5.77,0,0,0-.7-0.61,2.41,2.41,0,0,1-1.55.69,2.21,2.21,0,0,1,2.16,2.16A2.43,2.43,0,0,1,18.88,8.54Z" fill="#f9dddb"></path>
    </g>
</svg>